<?xml version="1.0" encoding="utf-8"?>
<!-- Generator: Adobe Illustrator 24.3.0, SVG Export Plug-In . SVG Version: 6.00 Build 0)  -->
<svg version="1.1" id="Capa_1" xmlns="http://www.w3.org/2000/svg" xmlns:xlink="http://www.w3.org/1999/xlink" x="0px" y="0px"
	 viewBox="0 0 20 20" style="enable-background:new 0 0 20 20;" xml:space="preserve">
<style type="text/css">
	.st0{enable-background:new    ;}
	.st1{fill:#818181;}
</style>
<g class="st0">
	<path class="st1" d="M12.5,15.3C12.5,15.3,12.5,15.3,12.5,15.3l-2.4,2.4c-2.1,2.1-5.5,2.1-7.6,0c-2.1-2.1-2.1-5.5,0-7.6l1.3-1.3
		c0.3-0.3,0.9-0.1,1,0.4c0,0.6,0.1,1.2,0.3,1.9c0.1,0.2,0,0.4-0.1,0.6l-0.5,0.5c-1,1-1,2.6,0,3.6c1,1,2.6,1,3.6,0l2.4-2.4
		c1-1,1-2.6,0-3.6c-0.1-0.1-0.3-0.2-0.4-0.3C10,9.4,9.9,9.2,9.9,9c0-0.4,0.1-0.8,0.4-1L11,7.2C11.2,7,11.5,7,11.8,7.2
		c0.2,0.1,0.5,0.4,0.7,0.6C14.6,9.9,14.6,13.2,12.5,15.3z M17.4,10.4l-1.3,1.3c-0.3,0.3-0.9,0.1-1-0.4c0-0.6-0.1-1.2-0.3-1.9
		c-0.1-0.2,0-0.4,0.1-0.6l0.5-0.5c1-1,1-2.6,0-3.6c-1-1-2.6-1-3.6,0L9.5,7.2c-1,1-1,2.6,0,3.6C9.6,10.9,9.8,11,9.9,11
		c0.1,0.1,0.2,0.3,0.2,0.4c0,0.4-0.1,0.8-0.4,1L9,13.3c-0.2,0.2-0.5,0.2-0.7,0.1c-0.2-0.1-0.5-0.4-0.7-0.6c-2.1-2.1-2.1-5.5,0-7.5
		c0,0,0,0,0,0l2.4-2.4c2.1-2.1,5.5-2.1,7.6,0C19.5,4.9,19.5,8.3,17.4,10.4z"/>
</g>
</svg>
