<svg xmlns="http://www.w3.org/2000/svg" width="18.265" height="18.266" viewBox="0 0 18.265 18.266"><defs><style>.a{fill:#fff;}</style></defs><g transform="translate(-0.003)"><path class="a" d="M17.264,1a3.3,3.3,0,0,0-2.42-1H3.428a3.3,3.3,0,0,0-2.42,1,3.3,3.3,0,0,0-1,2.42V14.841a3.3,3.3,0,0,0,1,2.42,3.3,3.3,0,0,0,2.42,1H14.844a3.431,3.431,0,0,0,3.425-3.425V3.425A3.3,3.3,0,0,0,17.264,1ZM5.568,15.293H2.821V7.04H5.568Zm-.25-9.781a1.564,1.564,0,0,1-1.13.41H4.177a1.512,1.512,0,0,1-1.1-.41A1.36,1.36,0,0,1,2.655,4.5a1.338,1.338,0,0,1,.434-1.023,1.583,1.583,0,0,1,1.124-.4,1.52,1.52,0,0,1,1.106.4A1.406,1.406,0,0,1,5.747,4.5,1.352,1.352,0,0,1,5.319,5.512ZM15.45,15.293H12.7V10.881q0-1.867-1.379-1.867a1.346,1.346,0,0,0-.88.291,1.83,1.83,0,0,0-.535.708,1.962,1.962,0,0,0-.083.666v4.614H7.079q.036-7.468,0-8.253H9.826V8.2a2.759,2.759,0,0,1,2.462-1.355,2.977,2.977,0,0,1,2.3.939,3.949,3.949,0,0,1,.868,2.771v4.733h0Z" transform="translate(0 0)"/></g></svg>