<svg xmlns="http://www.w3.org/2000/svg" width="18.837" height="14.801" viewBox="0 0 18.837 14.801"><defs><style>.a{fill:#fff;}</style></defs><g transform="translate(0 -59.013)"><g transform="translate(0 59.013)"><path class="a" d="M33.521,329.279a1.61,1.61,0,0,0,1.1-.416l-5.337-5.337-.369.266q-.6.441-.972.688a5.99,5.99,0,0,1-.993.5,3.028,3.028,0,0,1-1.156.257h-.021a3.027,3.027,0,0,1-1.156-.257,5.97,5.97,0,0,1-.993-.5q-.373-.247-.972-.688l-.368-.267-5.338,5.338a1.61,1.61,0,0,0,1.1.416Z" transform="translate(-16.366 -314.479)"/><path class="a" d="M1.062,199.47A5.574,5.574,0,0,1,0,198.555v8.12l4.7-4.7Q3.292,200.986,1.062,199.47Z" transform="translate(0 -193.783)"/><path class="a" d="M416.96,199.47q-2.148,1.454-3.651,2.5l4.7,4.7v-8.12A5.8,5.8,0,0,1,416.96,199.47Z" transform="translate(-399.174 -193.783)"/><path class="a" d="M17.161,59.013H1.688a1.5,1.5,0,0,0-1.246.546,2.121,2.121,0,0,0-.436,1.367,2.456,2.456,0,0,0,.578,1.435,5.215,5.215,0,0,0,1.23,1.214q.357.252,2.155,1.5c.647.448,1.21.839,1.693,1.176.412.287.768.536,1.061.742l.157.112.29.209q.342.247.568.4t.547.342a3.189,3.189,0,0,0,.6.284,1.672,1.672,0,0,0,.526.095h.021a1.673,1.673,0,0,0,.526-.095,3.182,3.182,0,0,0,.6-.284q.321-.189.547-.342t.568-.4l.29-.209.157-.112,1.064-.739,3.856-2.677a5,5,0,0,0,1.282-1.293,2.781,2.781,0,0,0,.515-1.587,1.7,1.7,0,0,0-1.682-1.682Z" transform="translate(-0.006 -59.013)"/></g></g></svg>