<svg xmlns="http://www.w3.org/2000/svg" width="18.5" height="15.031" viewBox="0 0 18.5 15.031">
  <g id="twitter" transform="translate(0 -48)">
    <g id="Grupo_117" data-name="Grupo 117" transform="translate(0 48)">
      <path id="Trazado_284" data-name="Trazado 284" d="M18.5,49.779a7.907,7.907,0,0,1-2.185.6,3.771,3.771,0,0,0,1.668-2.1,7.579,7.579,0,0,1-2.405.918,3.792,3.792,0,0,0-6.561,2.593,3.905,3.905,0,0,0,.088.865,10.735,10.735,0,0,1-7.817-3.967A3.794,3.794,0,0,0,2.454,53.76,3.746,3.746,0,0,1,.74,53.293v.042a3.81,3.81,0,0,0,3.039,3.727,3.785,3.785,0,0,1-.994.125,3.353,3.353,0,0,1-.718-.065A3.829,3.829,0,0,0,5.61,59.764a7.621,7.621,0,0,1-4.7,1.618A7.1,7.1,0,0,1,0,61.329a10.677,10.677,0,0,0,5.818,1.7A10.72,10.72,0,0,0,16.613,52.239c0-.168-.006-.33-.014-.49A7.566,7.566,0,0,0,18.5,49.779Z" transform="translate(0 -48)" fill="#00acee"/>
    </g>
  </g>
</svg>
