<svg xmlns="http://www.w3.org/2000/svg" width="25" height="25" viewBox="0 0 25 25"><defs><style>.a{fill:#fff;}</style></defs><path class="a" d="M8.841.435,4.112,5.163,2.537,3.587A1.486,1.486,0,0,0,0,4.638V9.891a1.486,1.486,0,0,0,1.486,1.486H6.741a1.486,1.486,0,0,0,1-2.581L6.214,7.265l4.728-4.728a1.486,1.486,0,0,0-2.1-2.1Z" transform="translate(11.377 25) rotate(180)"/><path class="a" d="M9.891,0H4.638A1.486,1.486,0,0,0,3.587,2.537L5.163,4.113.435,8.841a1.486,1.486,0,1,0,2.1,2.1L7.265,6.214,8.841,7.79a1.486,1.486,0,0,0,2.537-1.051V1.486A1.486,1.486,0,0,0,9.891,0Z" transform="translate(25 11.377) rotate(180)"/></svg>