<svg xmlns="http://www.w3.org/2000/svg" width="24.553" height="24.553" viewBox="0 0 24.553 24.553"><defs><style>.a{fill:#fff;}</style></defs><path class="a" d="M9.05,127.725l-4.84,4.84L2.6,130.952A1.521,1.521,0,0,0,0,132.028v5.378a1.521,1.521,0,0,0,1.521,1.521H6.9a1.521,1.521,0,0,0,1.028-2.642l-1.567-1.567,4.84-4.84a1.521,1.521,0,0,0-2.151-2.151Z" transform="translate(0 -114.374)"/><path class="a" d="M137.408,0H132.03a1.521,1.521,0,0,0-1.076,2.6l1.613,1.613-4.84,4.84a1.521,1.521,0,1,0,2.151,2.151l4.84-4.84,1.613,1.613a1.521,1.521,0,0,0,2.6-1.075V1.521A1.521,1.521,0,0,0,137.408,0Z" transform="translate(-114.376)"/></svg>